<?xml version="1.0" encoding="UTF-8" standalone="no"?>
<svg
   xmlns:dc="http://purl.org/dc/elements/1.1/"
   xmlns:cc="http://creativecommons.org/ns#"
   xmlns:rdf="http://www.w3.org/1999/02/22-rdf-syntax-ns#"
   xmlns:svg="http://www.w3.org/2000/svg"
   xmlns="http://www.w3.org/2000/svg"
   xmlns:xlink="http://www.w3.org/1999/xlink"
   xmlns:sodipodi="http://sodipodi.sourceforge.net/DTD/sodipodi-0.dtd"
   xmlns:inkscape="http://www.inkscape.org/namespaces/inkscape"
   viewBox="0 0 32 32"
   version="1.1"
   id="svg12"
   sodipodi:docname="folder-Pop_OS.svg"
   inkscape:version="1.0.1 (3bc2e813f5, 2020-09-07)">
  <metadata
     id="metadata16">
    <rdf:RDF>
      <cc:Work
         rdf:about="">
        <dc:format>image/svg+xml</dc:format>
        <dc:type
           rdf:resource="http://purl.org/dc/dcmitype/StillImage" />
      </cc:Work>
    </rdf:RDF>
  </metadata>
  <sodipodi:namedview
     pagecolor="#ffffff"
     bordercolor="#666666"
     borderopacity="1"
     objecttolerance="10"
     gridtolerance="10"
     guidetolerance="10"
     inkscape:pageopacity="0"
     inkscape:pageshadow="2"
     inkscape:window-width="1920"
     inkscape:window-height="1007"
     id="namedview14"
     showgrid="false"
     inkscape:zoom="7.375"
     inkscape:cx="16"
     inkscape:cy="16"
     inkscape:window-x="0"
     inkscape:window-y="0"
     inkscape:window-maximized="1"
     inkscape:current-layer="svg12"
     inkscape:document-rotation="0" />
  <defs
     id="defs3051">
    <linearGradient
       inkscape:collect="always"
       id="linearGradient827">
      <stop
         style="stop-color:#005f88;stop-opacity:1"
         offset="0"
         id="stop823" />
      <stop
         style="stop-color:#05b1ff;stop-opacity:1"
         offset="1"
         id="stop825" />
    </linearGradient>
    <style
       type="text/css"
       id="current-color-scheme">
      .ColorScheme-Text {
        color:#31363b;
      }
      .ColorScheme-Background {
        color:#eff0f1;
      }
      .ColorScheme-Highlight {
        color:#3daee9;
      }
      .ColorScheme-ViewText {
        color:#31363b;
      }
      .ColorScheme-ViewBackground {
        color:#fcfcfc;
      }
      .ColorScheme-ViewHover {
        color:#93cee9;
      }
      .ColorScheme-ViewFocus{
        color:#3daee9;
      }
      .ColorScheme-ButtonText {
        color:#31363b;
      }
      .ColorScheme-ButtonBackground {
        color:#eff0f1;
      }
      .ColorScheme-ButtonHover {
        color:#93cee9;
      }
      .ColorScheme-ButtonFocus{
        color:#3daee9;
      }
      </style>
    <linearGradient
       inkscape:collect="always"
       xlink:href="#linearGradient827"
       id="linearGradient829"
       x1="2"
       y1="6.5"
       x2="30"
       y2="6.5"
       gradientUnits="userSpaceOnUse" />
  </defs>
  <path
     style="fill:#a1b4ba;fill-opacity:1;stroke:none"
     d="M 2 3 L 2 10 L 1 10 L 1 29 L 12 29 L 13 29 L 31 29 L 31 8 L 30 8 L 30 5 L 16 5 L 14 3 L 2 3 z "
     class="ColorScheme-Highlight"
     id="path4" />
  <path
     style="fill-opacity:1;fill-rule:evenodd;fill:url(#linearGradient829)"
     d="m 2,3 0,7 9,0 L 13,8 30,8 30,5 16,5 14,3 2,3 Z"
     id="path6" />
  <path
     style="fill:#ffffff;fill-opacity:0.2;fill-rule:evenodd"
     d="M 14 3 L 15 6 L 30 6 L 30 5 L 16 5 L 14 3 z M 13 8 L 11 10 L 1 10 L 1 11 L 12 11 L 13 8 z "
     id="path8" />
  <path
     style="fill-opacity:0.2;fill-rule:evenodd"
     d="M 13 8 L 11 9 L 2 9 L 2 10 L 11 10 L 13 8 z M 1 28 L 1 29 L 31 29 L 31 28 L 1 28 z "
     class="ColorScheme-Text"
     id="path10" />
  <path
     style="fill:#002d3c;fill-opacity:1;stroke-width:0.0112957"
     id="path2-3"
     d="m 21.051739,19.532756 c -0.0212,0.09018 -0.06698,0.170124 -0.145279,0.220361 -0.122931,0.07879 -0.27268,0.05595 -0.378845,-0.03995 -0.09946,-0.08909 -0.132981,-0.239769 -0.101696,-0.369928 0.0324,-0.135866 0.135222,-0.255753 0.267093,-0.29343 0.293909,-0.08338 0.415717,0.243193 0.358727,0.482961 z m -0.179924,-0.927103 c -0.182157,-0.07417 -0.119579,-1.050411 0.04684,-2.235557 0.04684,-0.331109 0.127406,-0.48752 0.217917,-0.567442 0.12964,-0.113033 0.365432,-0.117601 0.525245,-0.09363 0.183274,0.02744 0.358728,0.114177 0.491704,0.245475 0.117346,0.116462 0.130754,0.235199 0.09054,0.389342 -0.066,0.245471 -0.178804,0.480672 -0.287205,0.710165 -0.02575,0.05595 -0.250327,0.490955 -0.280504,0.54462 -0.542001,0.975056 -0.650401,1.069823 -0.804614,1.007026 z" />
  <path
     style="fill:#002d3c;fill-opacity:1;stroke-width:0.0112957"
     id="path4-3"
     d="m 17.195153,18.166077 c 0.107284,0.468121 0.09611,0.981906 0.004,1.351839 -0.08604,0.349373 -0.319612,0.662215 -0.690632,0.767257 -0.325199,0.09246 -0.704038,0.02517 -0.936485,-0.203236 -0.382193,-0.374491 -0.605698,-1.253644 -0.506241,-1.891883 0.0804,-0.512642 0.350902,-1.169159 0.944309,-1.197702 0.03799,-0.0029 0.07599,-0.0013 0.11399,0.0029 0.60458,0.05595 0.934251,0.576586 1.070588,1.171439 z m -1.092939,1.065254 c 0.03349,0.0052 0.06698,0.0052 0.100579,-0.004 0.112871,-0.03315 0.177686,-0.152995 0.207856,-0.269453 0.04591,-0.176973 0.03907,-0.367646 -0.02017,-0.541191 -0.03009,-0.0879 -0.07483,-0.173549 -0.143047,-0.237487 -0.240263,-0.224924 -0.480535,0.0093 -0.521883,0.275164 -0.03241,0.207798 0.01459,0.44871 0.141929,0.616549 0.05924,0.07765 0.144161,0.144999 0.234675,0.160985 z" />
  <path
     style="fill:#002d3c;fill-opacity:1;stroke-width:0.0112957"
     id="path6-6"
     d="m 18.503779,19.158262 c -0.0017,0.864305 0.08378,1.525383 -0.288326,1.604161 -0.30173,0.06279 -0.291669,-0.207796 -0.31514,-0.435005 -0.08938,-0.880292 -0.17098,-2.34288 -0.205625,-3.227739 0.02449,-0.380206 0.273796,-0.613117 0.533061,-0.670212 0.400075,-0.08791 0.826973,-0.0628 1.181224,0.160992 0.700691,0.442996 0.756563,1.255925 0.331905,1.919283 -0.232447,0.361939 -0.935368,0.624542 -1.237099,0.601708 z m 0.08938,-1.937554 c -0.04359,0.0065 -0.115108,0.02744 -0.135225,0.07078 -0.04808,0.101611 -0.04465,0.746707 0.03907,1.017299 0.01335,0.04445 0.04358,0.08676 0.08716,0.102762 0.158687,0.05939 0.301736,-0.139298 0.366548,-0.259183 0.09053,-0.166696 0.119574,-0.363078 0.06265,-0.545757 -0.05366,-0.170116 -0.220148,-0.416731 -0.420182,-0.385904 z" />
  <path
     style="fill:#002d3c;fill-opacity:1;stroke-width:0.0112957"
     id="path8-7"
     d="m 14.496333,17.650004 c -0.262622,0.567454 -0.69846,1.018446 -1.301921,1.241085 0.173211,0.46241 0.349783,0.919112 0.521884,1.380381 0.09611,0.248904 0.187747,0.521784 0.103928,0.767256 -0.08716,0.25119 -0.426891,0.320837 -0.673872,0.05368 -0.474945,-0.516082 -2.080827,-3.786066 -2.199281,-4.031536 -0.100579,-0.21123 -0.251443,-0.437294 -0.246974,-0.681635 0.0077,-0.367639 0.564338,-0.739848 0.831444,-0.930525 0.373246,-0.266033 0.804615,-0.447562 1.266148,-0.44871 0.359844,0 0.667165,0.100475 0.939841,0.278594 0.417954,0.27401 0.70851,0.711308 0.815792,1.205682 0.09389,0.435009 0.07381,0.880295 -0.05707,1.165733 m -1.22368,-0.621118 c -0.09389,-0.348236 -0.306203,-0.669063 -0.573296,-0.893992 -0.05803,-0.04913 -0.120689,-0.09475 -0.193329,-0.119884 -0.50065,-0.167837 -0.283849,0.687333 -0.202276,0.903131 0.112871,0.302564 0.283854,0.685046 0.512946,0.9134 0.05023,0.05023 0.109519,0.09476 0.177684,0.108464 0.103932,0.0217 0.200044,-0.05246 0.252561,-0.139296 0.0436,-0.07191 0.06041,-0.157558 0.07041,-0.240902 0.01893,-0.176978 0.0033,-0.357376 -0.04465,-0.530921 z" />
  <path
     style="fill:#000000;fill-opacity:1;stroke-width:0.0112957"
     id="path10-5"
     d="m 20.483309,21.996332 c -0.0033,0.501233 -0.301728,1.002462 -0.962189,1.002462 -0.660459,0 -0.967775,-0.493237 -0.967775,-0.99675 0,-0.627965 0.428013,-1.016159 0.981187,-1.016159 0.641462,0.005 0.954365,0.492095 0.948777,1.010447 z m -0.948777,-0.69418 c -0.414604,0 -0.647049,0.294568 -0.649284,0.696467 0,0.349375 0.191096,0.677057 0.641463,0.677057 0.450359,0 0.622463,-0.355084 0.622463,-0.680482 0.0045,-0.33796 -0.16987,-0.685053 -0.614642,-0.693042 z m 1.225925,1.439749 c 0,0.07415 0.0033,-0.352801 0,-0.417884 h 0.303966 l 0.02121,0.261463 c 0.09945,0.05816 0.253677,0.101619 0.379954,0.101619 0.234685,0 0.479419,-0.06046 0.479419,-0.294575 -0.0077,-0.212367 -0.280496,-0.255752 -0.500649,-0.27859 -0.37438,-0.03879 -0.676111,-0.132441 -0.676111,-0.561742 0,-0.38249 0.423546,-0.573156 0.738685,-0.573156 0.253677,-0.005 0.433599,0.03546 0.662695,0.22264 0,0.154136 -0.0033,0.245474 -0.0033,0.399608 h -0.293713 l -0.01892,-0.253465 c -0.11846,-0.05818 -0.240268,-0.07417 -0.33414,-0.0719 -0.202274,0.0032 -0.417956,0.09933 -0.417956,0.27288 0,0.170118 0.139688,0.216932 0.387781,0.253468 0.404544,0.0548 0.794563,0.148426 0.794563,0.589143 -0.0033,0.481818 -0.444777,0.608554 -0.82474,0.608554 -0.289437,0.0017 -0.470474,-0.05369 -0.699568,-0.258032 z"
     inkscape:connector-curvature="0" />
  <path
     style="fill:#002d3c;stroke-width:0.0112957;fill-opacity:1"
     id="path12"
     d="m 18.143208,22.834383 c 0,0.08791 -0.06921,0.158702 -0.155335,0.158702 h -1.795862 c -0.08601,0 -0.155339,-0.07078 -0.155339,-0.158702 v -0.01375 c 0,-0.0879 0.06923,-0.158704 0.155339,-0.158704 h 1.795862 c 0.08602,0 0.155335,0.0708 0.155335,0.158704 z"
     inkscape:connector-curvature="0" />
</svg>
