<?xml version="1.0" encoding="UTF-8" standalone="no"?>
<svg
   xmlns:dc="http://purl.org/dc/elements/1.1/"
   xmlns:cc="http://creativecommons.org/ns#"
   xmlns:rdf="http://www.w3.org/1999/02/22-rdf-syntax-ns#"
   xmlns:svg="http://www.w3.org/2000/svg"
   xmlns="http://www.w3.org/2000/svg"
   xmlns:xlink="http://www.w3.org/1999/xlink"
   xmlns:sodipodi="http://sodipodi.sourceforge.net/DTD/sodipodi-0.dtd"
   xmlns:inkscape="http://www.inkscape.org/namespaces/inkscape"
   id="svg2"
   viewBox="0 0 32 32"
   height="32"
   version="1.1"
   width="32"
   sodipodi:docname="folder-unlocked.svg"
   inkscape:version="0.92.4 (5da689c313, 2019-01-14)">
  <sodipodi:namedview
     pagecolor="#ffffff"
     bordercolor="#666666"
     borderopacity="1"
     objecttolerance="10"
     gridtolerance="10"
     guidetolerance="10"
     inkscape:pageopacity="0"
     inkscape:pageshadow="2"
     inkscape:window-width="1920"
     inkscape:window-height="1017"
     id="namedview18"
     showgrid="false"
     inkscape:zoom="7.375"
     inkscape:cx="16"
     inkscape:cy="16"
     inkscape:window-x="0"
     inkscape:window-y="0"
     inkscape:window-maximized="1"
     inkscape:current-layer="svg2" />
  <defs
     id="defs5455">
    <linearGradient
       inkscape:collect="always"
       id="linearGradient832">
      <stop
         style="stop-color:#005f88;stop-opacity:1"
         offset="0"
         id="stop828" />
      <stop
         style="stop-color:#05b1ff;stop-opacity:1"
         offset="1"
         id="stop830" />
    </linearGradient>
    <linearGradient
       id="linearGradient4172-5">
      <stop
         id="stop4174-6"
         style="stop-color:#3daee9" />
      <stop
         id="stop4176-6"
         style="stop-color:#6cc1ef"
         offset="1" />
    </linearGradient>
    <linearGradient
       x2="0"
       gradientUnits="userSpaceOnUse"
       y2="8"
       y1="29"
       xlink:href="#linearGradient4172-5"
       id="linearGradient4342"
       gradientTransform="translate(322.77144,515.798)" />
    <linearGradient
       inkscape:collect="always"
       xlink:href="#linearGradient832"
       id="linearGradient834"
       x1="386.57144"
       y1="505.798"
       x2="414.57144"
       y2="505.798"
       gradientUnits="userSpaceOnUse"
       gradientTransform="translate(0,17)" />
  </defs>
  <metadata
     id="metadata5458">
    <rdf:RDF>
      <cc:Work
         rdf:about="">
        <dc:format>image/svg+xml</dc:format>
        <dc:type
           rdf:resource="http://purl.org/dc/dcmitype/StillImage" />
        <dc:title />
      </cc:Work>
    </rdf:RDF>
  </metadata>
  <g
     transform="matrix(1 0 0 1 -384.57143 -515.798)"
     id="layer1">
    <g
       transform="matrix(1 0 0 1 -0.000006 0)"
       id="layer1-1">
      <path
         d="m 386.57144,518.798 v 7 1 h 28 v -6 h -14.00001 l -2,-2 z"
         id="path4308"
         style="fill:url(#linearGradient834);fill-opacity:1;fill-rule:evenodd"
         inkscape:connector-curvature="0" />
      <path
         d="m 397.57143,523.798 -1.99999,1 -9,0 0,1 6.99999,0 3,0 z"
         id="path4306"
         style="fill-opacity:0.235294;fill-rule:evenodd" />
      <path
         d="m 397.57143,523.798 -2,2 h -9 -1 v 19 h 11 1 18 v -21 z"
         id="rect4294"
         style="fill:#a1b4ba;fill-opacity:1"
         inkscape:connector-curvature="0" />
      <path
         d="m 397.57143,523.798 -2,2 -10,0 0,1 11,0 z"
         id="path4304"
         style="fill:#ffffff;fill-opacity:0.235294;fill-rule:evenodd" />
      <path
         d="m 398.57143,518.798 1,3 15.00001,0 0,-1 -14.00001,0 z"
         id="path4310"
         style="fill:#ffffff;fill-opacity:0.235294;fill-rule:evenodd" />
      <rect
         id="rect4292"
         style="fill-opacity:0.235294"
         height="1"
         y="543.79797"
         x="385.57144"
         width="30" />
    </g>
    <path
       id="rect4184"
       d="m 400.43583,529.06918 c -1.662,0 -3,1.338 -3,3 h 1 c 0,-1.108 0.892,-2 2,-2 1.108,0 2,0.892 2,2 v 2 h -4 -1 -1 v 5 h 8 v -5 h -1 v -2 c 0,-1.662 -1.33799,-3 -3,-3 z m -3,6 h 1 4 1 v 3 h -6 z"
       style="fill:#005278;fill-opacity:1"
       inkscape:connector-curvature="0" />
  </g>
</svg>
