<?xml version="1.0" encoding="UTF-8" standalone="no"?>
<svg
   xmlns:dc="http://purl.org/dc/elements/1.1/"
   xmlns:cc="http://creativecommons.org/ns#"
   xmlns:rdf="http://www.w3.org/1999/02/22-rdf-syntax-ns#"
   xmlns:svg="http://www.w3.org/2000/svg"
   xmlns="http://www.w3.org/2000/svg"
   xmlns:xlink="http://www.w3.org/1999/xlink"
   xmlns:sodipodi="http://sodipodi.sourceforge.net/DTD/sodipodi-0.dtd"
   xmlns:inkscape="http://www.inkscape.org/namespaces/inkscape"
   viewBox="0 0 32 32"
   version="1.1"
   id="svg12"
   sodipodi:docname="folder-Github.svg"
   inkscape:version="1.0.1 (3bc2e813f5, 2020-09-07)">
  <metadata
     id="metadata16">
    <rdf:RDF>
      <cc:Work
         rdf:about="">
        <dc:format>image/svg+xml</dc:format>
        <dc:type
           rdf:resource="http://purl.org/dc/dcmitype/StillImage" />
      </cc:Work>
    </rdf:RDF>
  </metadata>
  <sodipodi:namedview
     pagecolor="#ffffff"
     bordercolor="#666666"
     borderopacity="1"
     objecttolerance="10"
     gridtolerance="10"
     guidetolerance="10"
     inkscape:pageopacity="0"
     inkscape:pageshadow="2"
     inkscape:window-width="1920"
     inkscape:window-height="1007"
     id="namedview14"
     showgrid="false"
     inkscape:zoom="7.375"
     inkscape:cx="16"
     inkscape:cy="16"
     inkscape:window-x="0"
     inkscape:window-y="0"
     inkscape:window-maximized="1"
     inkscape:current-layer="svg12"
     inkscape:document-rotation="0" />
  <defs
     id="defs3051">
    <linearGradient
       inkscape:collect="always"
       id="linearGradient827">
      <stop
         style="stop-color:#005f88;stop-opacity:1"
         offset="0"
         id="stop823" />
      <stop
         style="stop-color:#05b1ff;stop-opacity:1"
         offset="1"
         id="stop825" />
    </linearGradient>
    <style
       type="text/css"
       id="current-color-scheme">
      .ColorScheme-Text {
        color:#31363b;
      }
      .ColorScheme-Background {
        color:#eff0f1;
      }
      .ColorScheme-Highlight {
        color:#3daee9;
      }
      .ColorScheme-ViewText {
        color:#31363b;
      }
      .ColorScheme-ViewBackground {
        color:#fcfcfc;
      }
      .ColorScheme-ViewHover {
        color:#93cee9;
      }
      .ColorScheme-ViewFocus{
        color:#3daee9;
      }
      .ColorScheme-ButtonText {
        color:#31363b;
      }
      .ColorScheme-ButtonBackground {
        color:#eff0f1;
      }
      .ColorScheme-ButtonHover {
        color:#93cee9;
      }
      .ColorScheme-ButtonFocus{
        color:#3daee9;
      }
      </style>
    <linearGradient
       inkscape:collect="always"
       xlink:href="#linearGradient827"
       id="linearGradient829"
       x1="2"
       y1="6.5"
       x2="30"
       y2="6.5"
       gradientUnits="userSpaceOnUse" />
  </defs>
  <path
     style="fill:#a1b4ba;fill-opacity:1;stroke:none"
     d="M 2 3 L 2 10 L 1 10 L 1 29 L 12 29 L 13 29 L 31 29 L 31 8 L 30 8 L 30 5 L 16 5 L 14 3 L 2 3 z "
     class="ColorScheme-Highlight"
     id="path4" />
  <path
     style="fill-opacity:1;fill-rule:evenodd;fill:url(#linearGradient829)"
     d="m 2,3 0,7 9,0 L 13,8 30,8 30,5 16,5 14,3 2,3 Z"
     id="path6" />
  <path
     style="fill:#ffffff;fill-opacity:0.2;fill-rule:evenodd"
     d="M 14 3 L 15 6 L 30 6 L 30 5 L 16 5 L 14 3 z M 13 8 L 11 10 L 1 10 L 1 11 L 12 11 L 13 8 z "
     id="path8" />
  <path
     style="fill-opacity:0.2;fill-rule:evenodd"
     d="M 13 8 L 11 9 L 2 9 L 2 10 L 11 10 L 13 8 z M 1 28 L 1 29 L 31 29 L 31 28 L 1 28 z "
     class="ColorScheme-Text"
     id="path10" />
  <path
     d="M 16.217326,13 C 13.33475,13 11,15.295624 11,18.126888 c 0,2.265623 1.494761,4.186901 3.56735,4.864281 0.260861,0.04821 0.356511,-0.110428 0.356511,-0.246515 0,-0.12174 -0.0049,-0.444345 -0.0063,-0.871726 -1.451285,0.30913 -1.757372,-0.687821 -1.757372,-0.687821 -0.237387,-0.591731 -0.580427,-0.749996 -0.580427,-0.749996 -0.472599,-0.31782 0.03649,-0.311296 0.03649,-0.311296 0.523906,0.0356 0.799123,0.528256 0.799123,0.528256 0.465208,0.783907 1.221287,0.557391 1.519543,0.426521 0.04691,-0.331736 0.181301,-0.557386 0.330428,-0.685646 -1.15868,-0.128255 -2.376488,-0.569121 -2.376488,-2.533444 0,-0.559556 0.202172,-1.016941 0.536952,-1.375631 -0.05867,-0.129566 -0.23478,-0.650862 0.04562,-1.356938 0,0 0.43695,-0.13739 1.434761,0.525646 0.417392,-0.113915 0.86086,-0.170435 1.30433,-0.173045 0.443473,0.0025 0.886951,0.05913 1.304334,0.173045 0.991291,-0.663036 1.428244,-0.525646 1.428244,-0.525646 0.280429,0.706076 0.10434,1.227372 0.05216,1.356938 0.332603,0.35869 0.534772,0.816075 0.534772,1.375631 0,1.969538 -1.21955,2.403014 -2.380402,2.529099 0.182604,0.15391 0.352171,0.468256 0.352171,0.948681 0,0.686081 -0.0063,1.237377 -0.0063,1.403898 0,0.134345 0.09133,0.294769 0.35869,0.243474 2.087359,-0.67304 3.580819,-2.595623 3.580819,-4.857766 C 21.435005,15.295624 19.098953,13 16.217689,13 Z"
     id="path2-3"
     style="fill:#002e3c;fill-opacity:1;stroke-width:0.434774" />
</svg>
