<?xml version="1.0" encoding="UTF-8" standalone="no"?><!-- Generator: Gravit.io --><svg xmlns="http://www.w3.org/2000/svg" xmlns:xlink="http://www.w3.org/1999/xlink" style="isolation:isolate" viewBox="0 0 48 48" width="48pt" height="48pt"><path d=" M 1.247 13.3 L 1.247 41.208 C 1.247 42.864 2.591 44.208 4.247 44.208 L 43.229 44.208 C 44.885 44.208 46.229 42.864 46.229 41.208 L 46.229 17.465 C 46.229 15.809 44.885 14.464 43.229 14.463 L 21.116 14.446 C 20.564 14.445 19.799 14.128 19.409 13.737 L 17.299 11.623 C 16.519 10.842 14.99 10.214 13.886 10.221 L 4.247 10.281 C 2.591 10.292 1.247 11.644 1.247 13.3 Z " fill="rgb(54,57,73)"/><path d=" M 6.5 16 L 41.5 16 C 42.604 16 43.5 16.896 43.5 18 L 43.5 28 C 43.5 29.104 42.604 30 41.5 30 L 6.5 30 C 5.396 30 4.5 29.104 4.5 28 L 4.5 18 C 4.5 16.896 5.396 16 6.5 16 Z " fill="rgb(126,130,160)"/><path d=" M 1.247 17.965 L 1.247 43.208 C 1.247 44.864 2.591 46.208 4.247 46.208 L 43.229 46.208 C 44.885 46.208 46.229 44.864 46.229 43.208 L 46.229 20.965 C 46.229 19.309 44.885 17.964 43.229 17.963 L 21.116 17.946 C 20.564 17.945 19.668 17.945 19.116 17.946 L 1.247 17.965 Z " fill="rgb(54,57,73)"/><g><path d=" M 15.25 25.014 L 15.25 41.014 C 15.25 41.635 15.754 42.139 16.375 42.139 L 28.859 42.139 C 29.48 42.139 29.994 41.635 30.007 41.014 L 30.25 29.014 L 24.289 23.889 L 16.375 23.889 C 15.754 23.889 15.25 24.394 15.25 25.014 Z " fill="rgb(110,89,145)" fill-opacity="0.51"/><defs><filter id="paTus9mnSFLz3Kaoj5IGFr9xDqG4OTxM" x="-200%" y="-200%" width="400%" height="400%" filterUnits="objectBoundingBox" color-interpolation-filters="sRGB"><feGaussianBlur xmlns="http://www.w3.org/2000/svg" stdDeviation="21.46804531419514"/></filter></defs><g opacity="0.76" filter="url(#paTus9mnSFLz3Kaoj5IGFr9xDqG4OTxM)"><path d=" M 17.75 23.139 L 17.75 39.139 C 17.75 39.76 18.254 40.264 18.875 40.264 L 31.359 40.264 C 31.98 40.264 32.494 39.76 32.507 39.139 L 32.75 27.139 L 26.789 22.014 L 18.875 22.014 C 18.254 22.014 17.75 22.519 17.75 23.139 Z " fill="none"/></g><g opacity="0.91"><path d=" M 17.75 23.139 L 17.75 39.139 C 17.75 39.76 18.254 40.264 18.875 40.264 L 31.359 40.264 C 31.98 40.264 32.494 39.76 32.507 39.139 L 32.75 27.139 L 26.789 22.014 L 18.875 22.014 C 18.254 22.014 17.75 22.519 17.75 23.139 Z " fill="rgb(126,130,160)"/></g><path d=" M 26.789 22.014 L 26.789 26.389 C 26.789 26.803 27.125 27.139 27.539 27.139 L 32.75 27.139" fill="rgb(161,163,186)"/><path d=" M 20.937 35.764 L 29.562 35.764 C 29.976 35.764 30.312 36.1 30.312 36.514 L 30.312 36.514 C 30.312 36.928 29.976 37.264 29.562 37.264 L 20.937 37.264 C 20.524 37.264 20.187 36.928 20.187 36.514 L 20.187 36.514 C 20.187 36.1 20.524 35.764 20.937 35.764 Z " fill="rgb(161,163,186)"/><path d=" M 20.937 32.389 L 29.562 32.389 C 29.976 32.389 30.312 32.725 30.312 33.139 L 30.312 33.139 C 30.312 33.553 29.976 33.889 29.562 33.889 L 20.937 33.889 C 20.524 33.889 20.187 33.553 20.187 33.139 L 20.187 33.139 C 20.187 32.725 20.524 32.389 20.937 32.389 Z " fill="rgb(161,163,186)"/></g></svg>