<?xml version="1.0" encoding="UTF-8" standalone="no"?><!-- Generator: Gravit.io --><svg xmlns="http://www.w3.org/2000/svg" xmlns:xlink="http://www.w3.org/1999/xlink" style="isolation:isolate" viewBox="0 0 48 48" width="48pt" height="48pt"><path d=" M 1.247 13.3 L 1.247 41.208 C 1.247 42.864 2.591 44.208 4.247 44.208 L 43.229 44.208 C 44.885 44.208 46.229 42.864 46.229 41.208 L 46.229 17.465 C 46.229 15.809 44.885 14.464 43.229 14.463 L 21.116 14.446 C 20.564 14.445 19.799 14.128 19.409 13.737 L 17.299 11.623 C 16.519 10.842 14.99 10.214 13.886 10.221 L 4.247 10.281 C 2.591 10.292 1.247 11.644 1.247 13.3 Z " fill="rgb(54,57,73)"/><path d=" M 6.5 16 L 41.5 16 C 42.604 16 43.5 16.896 43.5 18 L 43.5 28 C 43.5 29.104 42.604 30 41.5 30 L 6.5 30 C 5.396 30 4.5 29.104 4.5 28 L 4.5 18 C 4.5 16.896 5.396 16 6.5 16 Z " fill="rgb(126,130,160)"/><path d=" M 1.247 17.965 L 1.247 43.208 C 1.247 44.864 2.591 46.208 4.247 46.208 L 43.229 46.208 C 44.885 46.208 46.229 44.864 46.229 43.208 L 46.229 20.965 C 46.229 19.309 44.885 17.964 43.229 17.963 L 21.116 17.946 C 20.564 17.945 19.668 17.945 19.116 17.946 L 1.247 17.965 Z " fill="rgb(54,57,73)"/><linearGradient id="_lgradient_28" x1="0.54298682191" y1="-0.2655597284837264" x2="0.5197544986776772" y2="0.9833570139497876" gradientTransform="matrix(9.89,0,0,13.018,17.773,22.477)" gradientUnits="userSpaceOnUse"><stop offset="3.0434782608695654%" stop-opacity="1" style="stop-color:rgb(166,124,243)"/><stop offset="99.16666666666667%" stop-opacity="1" style="stop-color:rgb(110,89,145)"/></linearGradient><path d=" M 21.373 31.427 L 21.373 23.822 L 21.373 23.822 C 21.373 23.08 21.975 22.477 22.718 22.477 L 22.718 22.477 C 23.46 22.477 24.062 23.08 24.062 23.822 L 24.062 23.822 L 24.062 31.427 L 25.367 30.103 L 25.367 30.103 C 25.887 29.576 26.736 29.57 27.263 30.089 L 27.263 30.089 C 27.79 30.609 27.796 31.459 27.277 31.986 L 27.277 31.986 L 24.614 34.689 C 24.116 35.2 23.43 35.496 22.718 35.496 C 22.005 35.496 21.319 35.2 20.821 34.689 L 18.158 31.986 L 18.158 31.986 C 17.639 31.459 17.645 30.609 18.172 30.089 L 18.172 30.089 C 18.699 29.57 19.549 29.576 20.068 30.103 L 20.068 30.103 L 21.373 31.427 Z " fill-rule="evenodd" fill="url(#_lgradient_28)" fill-opacity="0.6"/><g opacity="0.55"><path d=" M 21.373 31.427 L 21.373 23.822 L 21.373 23.822 C 21.373 23.08 21.975 22.477 22.718 22.477 L 22.718 22.477 C 23.46 22.477 24.062 23.08 24.062 23.822 L 24.062 23.822 L 24.062 31.427 L 25.367 30.103 L 25.367 30.103 C 25.887 29.576 26.736 29.57 27.263 30.089 L 27.263 30.089 C 27.79 30.609 27.796 31.459 27.277 31.986 L 27.277 31.986 L 24.614 34.689 C 24.116 35.2 23.43 35.496 22.718 35.496 C 22.005 35.496 21.319 35.2 20.821 34.689 L 18.158 31.986 L 18.158 31.986 C 17.639 31.459 17.645 30.609 18.172 30.089 L 18.172 30.089 C 18.699 29.57 19.549 29.576 20.068 30.103 L 20.068 30.103 L 21.373 31.427 Z " fill-rule="evenodd" fill="rgb(161,163,186)"/></g><defs><filter id="tzx6clY9N7HsLXkPuib4s0S2wY4va8Yg" x="-200%" y="-200%" width="400%" height="400%" filterUnits="objectBoundingBox" color-interpolation-filters="sRGB"><feGaussianBlur xmlns="http://www.w3.org/2000/svg" in="SourceGraphic" stdDeviation="0.42936090628390283"/><feOffset xmlns="http://www.w3.org/2000/svg" dx="0" dy="0" result="pf_100_offsetBlur"/><feFlood xmlns="http://www.w3.org/2000/svg" flood-color="#000000" flood-opacity="0.4"/><feComposite xmlns="http://www.w3.org/2000/svg" in2="pf_100_offsetBlur" operator="in" result="pf_100_dropShadow"/><feBlend xmlns="http://www.w3.org/2000/svg" in="SourceGraphic" in2="pf_100_dropShadow" mode="normal"/></filter></defs><g opacity="0.6" filter="url(#tzx6clY9N7HsLXkPuib4s0S2wY4va8Yg)"><linearGradient id="_lgradient_29" x1="0.54298682191" y1="-0.2655597284837264" x2="0.5197544986776772" y2="0.9833570139497876" gradientTransform="matrix(16.219,0,0,5.52,13.886,36.496)" gradientUnits="userSpaceOnUse"><stop offset="3.0434782608695654%" stop-opacity="1" style="stop-color:rgb(166,124,243)"/><stop offset="99.16666666666667%" stop-opacity="1" style="stop-color:rgb(110,89,145)"/></linearGradient><path d=" M 14.886 36.496 L 18.346 36.496 L 21.229 38.807 C 21.66 39.153 22.358 39.151 22.787 38.805 L 25.645 36.496 L 29.105 36.496 C 29.657 36.496 30.105 36.944 30.105 37.496 L 30.105 41.016 C 30.105 41.568 29.657 42.016 29.105 42.016 L 14.886 42.016 C 14.334 42.016 13.886 41.568 13.886 41.016 L 13.886 37.496 C 13.886 36.944 14.334 36.496 14.886 36.496 Z " fill="url(#_lgradient_29)"/></g><defs><filter id="aPTY7du6AcMyXx1z2VVfyqTL5mPnEYRI" x="-200%" y="-200%" width="400%" height="400%" filterUnits="objectBoundingBox" color-interpolation-filters="sRGB"><feGaussianBlur xmlns="http://www.w3.org/2000/svg" in="SourceGraphic" stdDeviation="0.42936090628390283"/><feOffset xmlns="http://www.w3.org/2000/svg" dx="0" dy="1" result="pf_100_offsetBlur"/><feFlood xmlns="http://www.w3.org/2000/svg" flood-color="#000000" flood-opacity="0.4"/><feComposite xmlns="http://www.w3.org/2000/svg" in2="pf_100_offsetBlur" operator="in" result="pf_100_dropShadow"/><feBlend xmlns="http://www.w3.org/2000/svg" in="SourceGraphic" in2="pf_100_dropShadow" mode="normal"/></filter></defs><g opacity="0.7" filter="url(#aPTY7du6AcMyXx1z2VVfyqTL5mPnEYRI)"><path d=" M 15.886 35.496 L 19.346 35.496 L 22.229 37.807 C 22.66 38.153 23.358 38.151 23.787 37.805 L 26.645 35.496 L 30.105 35.496 C 30.657 35.496 31.105 35.944 31.105 36.496 L 31.105 40.016 C 31.105 40.568 30.657 41.016 30.105 41.016 L 15.886 41.016 C 15.334 41.016 14.886 40.568 14.886 40.016 L 14.886 36.496 C 14.886 35.944 15.334 35.496 15.886 35.496 Z " fill="rgb(161,163,186)"/></g></svg>