<?xml version="1.0" encoding="UTF-8" standalone="no"?><!-- Generator: Gravit.io --><svg xmlns="http://www.w3.org/2000/svg" xmlns:xlink="http://www.w3.org/1999/xlink" style="isolation:isolate" viewBox="0 0 48 48" width="48pt" height="48pt"><path d=" M 1.247 13.3 L 1.247 41.208 C 1.247 42.864 2.591 44.208 4.247 44.208 L 43.229 44.208 C 44.885 44.208 46.229 42.864 46.229 41.208 L 46.229 17.465 C 46.229 15.809 44.885 14.464 43.229 14.463 L 21.116 14.446 C 20.564 14.445 19.799 14.128 19.409 13.737 L 17.299 11.623 C 16.519 10.842 14.99 10.214 13.886 10.221 L 4.247 10.281 C 2.591 10.292 1.247 11.644 1.247 13.3 Z " fill="rgb(54,57,73)"/><path d=" M 6.5 16 L 41.5 16 C 42.604 16 43.5 16.896 43.5 18 L 43.5 28 C 43.5 29.104 42.604 30 41.5 30 L 6.5 30 C 5.396 30 4.5 29.104 4.5 28 L 4.5 18 C 4.5 16.896 5.396 16 6.5 16 Z " fill="rgb(126,130,160)"/><path d=" M 1.247 17.965 L 1.247 43.208 C 1.247 44.864 2.591 46.208 4.247 46.208 L 43.229 46.208 C 44.885 46.208 46.229 44.864 46.229 43.208 L 46.229 20.965 C 46.229 19.309 44.885 17.964 43.229 17.963 L 21.116 17.946 C 20.564 17.945 19.668 17.945 19.116 17.946 L 1.247 17.965 Z " fill="rgb(54,57,73)"/><g><defs><filter id="2SrpLm4QasCi6cTrA44gH7LP4IPu4E4d" x="-200%" y="-200%" width="400%" height="400%" filterUnits="objectBoundingBox" color-interpolation-filters="sRGB"><feGaussianBlur xmlns="http://www.w3.org/2000/svg" in="SourceGraphic" stdDeviation="0.8587218125678057"/><feOffset xmlns="http://www.w3.org/2000/svg" dx="-1" dy="1" result="pf_100_offsetBlur"/><feFlood xmlns="http://www.w3.org/2000/svg" flood-color="#23242F" flood-opacity="0.65"/><feComposite xmlns="http://www.w3.org/2000/svg" in2="pf_100_offsetBlur" operator="in" result="pf_100_dropShadow"/><feBlend xmlns="http://www.w3.org/2000/svg" in="SourceGraphic" in2="pf_100_dropShadow" mode="normal"/></filter></defs><g opacity="0.6" filter="url(#2SrpLm4QasCi6cTrA44gH7LP4IPu4E4d)"><linearGradient id="_lgradient_16" x1="0.54298682191" y1="-0.2655597284837264" x2="0.5197544986776772" y2="0.9833570139497876" gradientTransform="matrix(13.313,0,0,16.196,16.234,24.81)" gradientUnits="userSpaceOnUse"><stop offset="3.0434782608695654%" stop-opacity="1" style="stop-color:rgb(166,124,243)"/><stop offset="99.16666666666667%" stop-opacity="1" style="stop-color:rgb(110,89,145)"/></linearGradient><path d=" M 16.234 25.809 L 16.234 40.008 C 16.234 40.559 16.682 41.007 17.233 41.007 L 28.313 41.007 C 28.864 41.007 29.32 40.56 29.331 40.009 L 29.547 29.358 L 24.257 24.81 L 17.233 24.81 C 16.682 24.81 16.234 25.258 16.234 25.809 Z " fill="url(#_lgradient_16)"/></g><defs><filter id="WY2eaNraqbMGR4O59662ETbqapaxb4Sz" x="-200%" y="-200%" width="400%" height="400%" filterUnits="objectBoundingBox" color-interpolation-filters="sRGB"><feGaussianBlur xmlns="http://www.w3.org/2000/svg" stdDeviation="21.46804531419514"/></filter></defs><g opacity="0.76" filter="url(#WY2eaNraqbMGR4O59662ETbqapaxb4Sz)"><path d=" M 18.453 24.145 L 18.453 38.344 C 18.453 38.895 18.9 39.343 19.452 39.343 L 30.531 39.343 C 31.082 39.343 31.539 38.895 31.55 38.345 L 31.766 27.694 L 26.476 23.146 L 19.452 23.146 C 18.9 23.146 18.453 23.594 18.453 24.145 Z " fill="none"/></g><defs><filter id="GtqsfckPhEgUuPvpEO5rOh1872W5Mz8M" x="-200%" y="-200%" width="400%" height="400%" filterUnits="objectBoundingBox" color-interpolation-filters="sRGB"><feGaussianBlur xmlns="http://www.w3.org/2000/svg" in="SourceGraphic" stdDeviation="0.42936090628390283"/><feOffset xmlns="http://www.w3.org/2000/svg" dx="0" dy="1" result="pf_100_offsetBlur"/><feFlood xmlns="http://www.w3.org/2000/svg" flood-color="#000000" flood-opacity="0.4"/><feComposite xmlns="http://www.w3.org/2000/svg" in2="pf_100_offsetBlur" operator="in" result="pf_100_dropShadow"/><feBlend xmlns="http://www.w3.org/2000/svg" in="SourceGraphic" in2="pf_100_dropShadow" mode="normal"/></filter></defs><g opacity="0.77" filter="url(#GtqsfckPhEgUuPvpEO5rOh1872W5Mz8M)"><linearGradient id="_lgradient_17" x1="0.5000000000000002" y1="0" x2="0.5199517698949179" y2="1.3106984928916552" gradientTransform="matrix(13.313,0,0,16.196,18.453,23.146)" gradientUnits="userSpaceOnUse"><stop offset="0%" stop-opacity="1" style="stop-color:rgb(126,130,160)"/><stop offset="100%" stop-opacity="1" style="stop-color:rgb(92,80,130)"/></linearGradient><path d=" M 18.453 24.145 L 18.453 38.344 C 18.453 38.895 18.9 39.343 19.452 39.343 L 30.531 39.343 C 31.082 39.343 31.539 38.895 31.55 38.345 L 31.766 27.694 L 26.476 23.146 L 19.452 23.146 C 18.9 23.146 18.453 23.594 18.453 24.145 Z " fill="url(#_lgradient_17)"/></g><path d=" M 26.476 23.146 L 26.476 27.029 C 26.476 27.396 26.774 27.694 27.141 27.694 L 31.766 27.694" fill="rgb(161,163,186)"/><path d=" M 21.282 35.349 L 28.937 35.349 C 29.304 35.349 29.602 35.647 29.602 36.015 L 29.602 36.015 C 29.602 36.382 29.304 36.68 28.937 36.68 L 21.282 36.68 C 20.915 36.68 20.616 36.382 20.616 36.015 L 20.616 36.015 C 20.616 35.647 20.915 35.349 21.282 35.349 Z " fill="rgb(161,163,186)"/><path d=" M 21.282 32.354 L 28.937 32.354 C 29.304 32.354 29.602 32.652 29.602 33.019 L 29.602 33.019 C 29.602 33.387 29.304 33.685 28.937 33.685 L 21.282 33.685 C 20.915 33.685 20.616 33.387 20.616 33.019 L 20.616 33.019 C 20.616 32.652 20.915 32.354 21.282 32.354 Z " fill="rgb(161,163,186)"/></g></svg>