<?xml version="1.0" encoding="UTF-8" standalone="no"?>
<svg
   xmlns:dc="http://purl.org/dc/elements/1.1/"
   xmlns:cc="http://creativecommons.org/ns#"
   xmlns:rdf="http://www.w3.org/1999/02/22-rdf-syntax-ns#"
   xmlns:svg="http://www.w3.org/2000/svg"
   xmlns="http://www.w3.org/2000/svg"
   xmlns:xlink="http://www.w3.org/1999/xlink"
   xmlns:sodipodi="http://sodipodi.sourceforge.net/DTD/sodipodi-0.dtd"
   xmlns:inkscape="http://www.inkscape.org/namespaces/inkscape"
   height="64"
   width="64"
   version="1.1"
   id="svg19"
   sodipodi:docname="folder-root.svg"
   inkscape:version="0.92.4 (5da689c313, 2019-01-14)">
  <metadata
     id="metadata25">
    <rdf:RDF>
      <cc:Work
         rdf:about="">
        <dc:format>image/svg+xml</dc:format>
        <dc:type
           rdf:resource="http://purl.org/dc/dcmitype/StillImage" />
      </cc:Work>
    </rdf:RDF>
  </metadata>
  <defs
     id="defs23">
    <linearGradient
       inkscape:collect="always"
       id="linearGradient824">
      <stop
         style="stop-color:#005f88;stop-opacity:1;"
         offset="0"
         id="stop820" />
      <stop
         style="stop-color:#05b1ff;stop-opacity:1"
         offset="1"
         id="stop822" />
    </linearGradient>
    <linearGradient
       inkscape:collect="always"
       xlink:href="#linearGradient824"
       id="linearGradient826"
       x1="3.9999999"
       y1="20"
       x2="60"
       y2="20"
       gradientUnits="userSpaceOnUse" />
  </defs>
  <sodipodi:namedview
     pagecolor="#ffffff"
     bordercolor="#666666"
     borderopacity="1"
     objecttolerance="10"
     gridtolerance="10"
     guidetolerance="10"
     inkscape:pageopacity="0"
     inkscape:pageshadow="2"
     inkscape:window-width="1920"
     inkscape:window-height="1017"
     id="namedview21"
     showgrid="false"
     inkscape:zoom="3.6875"
     inkscape:cx="-114.0339"
     inkscape:cy="32"
     inkscape:window-x="0"
     inkscape:window-y="0"
     inkscape:window-maximized="1"
     inkscape:current-layer="svg19" />
  <linearGradient
     id="a"
     gradientUnits="userSpaceOnUse"
     x1="3"
     x2="3"
     y1="58"
     y2="16"
     gradientTransform="translate(-93.830508,1.0847458)">
    <stop
       offset="0"
       stop-color="#3daee9"
       id="stop2" />
    <stop
       offset="1"
       stop-color="#6cc1ef"
       id="stop4" />
  </linearGradient>
  <path
     d="m 3.9999999,6 v 27 c 0,0.554 0.446,1 1,1 H 59 c 0.554,0 1,-0.446 1,-1 V 11.01 L 59.998,11 H 60 V 10 H 32 L 28,6 Z"
     id="path7"
     inkscape:connector-curvature="0"
     style="fill:url(#linearGradient826);fill-opacity:1" />
  <path
     d="M 3,20 V 58 H 61 V 16 H 26 l -4,4 z"
     id="path9"
     style="fill:#a1b4ba;fill-opacity:1"
     inkscape:connector-curvature="0" />
  <g
     fill-opacity=".235"
     id="g15">
    <path
       d="M3 20v1h20l3-5-4 4zM28 6l3 5h29v-1H32z"
       fill="#fff"
       id="path11" />
    <path
       d="M4 19v1h18l4-4-6 3zM3 57v1h58v-1z"
       fill="#000"
       id="path13" />
  </g>
  <path
     d="m 33.728813,27 h -2 l -10,20 h 2 z m -2,19 h 10.000002 v 1 H 31.728813 Z"
     id="path17"
     inkscape:connector-curvature="0"
     style="fill:#005f88;fill-opacity:1" />
</svg>
